<svg viewBox="0 0 14 14" xmlns="http://www.w3.org/2000/svg" xmlns:xlink="http://www.w3.org/1999/xlink" width="14.000000" height="14.000000" fill="none" customFrame="#000000">
	<rect id="Edit" width="14.000000" height="14.000000" x="0.000000" y="0.000000" />
	<path id="path1" d="M0.00170113 6.9943C0.00170113 5.90071 -0.00212641 4.80713 0.00170113 3.71355C-0.000499028 3.18437 0.064543 2.65705 0.195265 2.14426C0.481783 1.05889 1.18878 0.414767 2.27307 0.164884C2.81674 0.0474178 3.37205 -0.00761733 3.9282 0.000846414C6.02533 0.000846414 8.12263 0.000846414 10.2201 0.000846414C10.7498 -0.00244186 11.278 0.0581422 11.7932 0.181287C12.9103 0.454682 13.5807 1.16223 13.836 2.27549C13.9508 2.80164 14.0057 3.3391 13.9995 3.87759C13.9995 5.99731 13.9995 8.11722 13.9995 10.2373C14.0024 10.7619 13.942 11.285 13.8196 11.7951C13.5462 12.9128 12.8354 13.5798 11.7222 13.8352C11.1784 13.9522 10.6232 14.0072 10.067 13.9992C7.97864 13.9992 5.89045 13.9992 3.80244 13.9992C3.26867 14.0036 2.73631 13.9439 2.21675 13.8215C1.09474 13.5481 0.421089 12.8373 0.166285 11.7186C0.0361489 11.1499 0.00170113 10.5796 0.00170113 10.0044C0.00170113 9.0012 0.00170113 7.99784 0.00170113 6.9943Z" opacity="0" fill-rule="evenodd" />
	<path id="矢量 124" d="M11.5471 1.8888C10.7983 1.12044 9.5795 1.12039 8.83066 1.88869L2.51652 8.31732C2.47182 8.36283 2.43762 8.41756 2.41629 8.47768L1.33751 11.5205C1.21561 11.8643 1.54334 12.1976 1.88918 12.0814L5.06057 11.016C5.12409 10.9947 5.18184 10.9591 5.22939 10.9119L11.5419 4.64907C12.2897 3.88179 12.2897 2.65084 11.5471 1.8888ZM9.52604 2.43496C9.93438 2.08479 10.5376 2.10663 10.9204 2.49949L10.9852 2.57224L11.0423 2.64939C11.3163 3.05605 11.2887 3.61489 10.9595 3.99088L9.52604 2.43496ZM8.86102 3.10625L3.20878 8.86083L2.46212 10.9655L4.68577 10.2182L10.3398 4.60892L8.86102 3.10625ZM11.5207 12.25C11.5207 12.0084 11.3248 11.8125 11.0832 11.8125L6.41653 11.8125L6.35716 11.8165C6.14362 11.8455 5.97903 12.0285 5.97903 12.25C5.97903 12.4916 6.1749 12.6875 6.41653 12.6875L11.0832 12.6875L11.1426 12.6835C11.3561 12.6545 11.5207 12.4715 11.5207 12.25Z" fill="rgb(0,0,0)" fill-rule="evenodd" />
</svg>
