<svg viewBox="0 0 16 16" xmlns="http://www.w3.org/2000/svg" xmlns:xlink="http://www.w3.org/1999/xlink" width="16.000000" height="16.000000" fill="none">
	<rect id="ic_gts_modelling" width="16.000000" height="16.000000" x="0.000000" y="0.000000" />
	<path id="合并" d="M14.3787 3.57251C14.2262 3.42 14.0532 3.28791 13.8598 3.17626L9.24339 0.510962C9.05002 0.399318 8.84916 0.315585 8.64083 0.259762C8.4325 0.203938 8.21668 0.176025 7.99339 0.176025C7.7701 0.176025 7.55428 0.203937 7.34595 0.25976C7.13762 0.315582 6.93676 0.399317 6.74339 0.510962L2.12695 3.17626C1.93358 3.28791 1.76063 3.41999 1.60812 3.5725L1.6081 3.57252C1.4556 3.72502 1.32353 3.89796 1.21189 4.09132C1.10024 4.2847 1.01651 4.48556 0.960686 4.69389C0.904864 4.90222 0.876953 5.11804 0.876953 5.34132L0.876953 10.6719C0.876953 10.8952 0.904864 11.111 0.960685 11.3194C1.01651 11.5277 1.10024 11.7285 1.21189 11.9219C1.32353 12.1153 1.45561 12.2882 1.60812 12.4408C1.76063 12.5933 1.93358 12.7253 2.12695 12.837L6.74339 15.5023C6.93676 15.6139 7.13761 15.6977 7.34594 15.7535L7.34619 15.7536C7.55445 15.8093 7.77019 15.8372 7.99339 15.8372C8.21668 15.8372 8.4325 15.8093 8.64084 15.7535C8.84917 15.6977 9.05002 15.6139 9.24339 15.5023L13.8598 12.837C14.0532 12.7253 14.2261 12.5933 14.3786 12.4408L14.3787 12.4407C14.5312 12.2882 14.6632 12.1153 14.7749 11.9219C14.8865 11.7285 14.9703 11.5277 15.0261 11.3194C15.0819 11.111 15.1098 10.8952 15.1098 10.6719L15.1098 5.34132C15.1098 5.11803 15.0819 4.90221 15.0261 4.69387C14.9703 4.48554 14.8865 4.28469 14.7749 4.09132C14.6632 3.89796 14.5312 3.72502 14.3787 3.57251ZM8.50008 3.41886L8.50023 1.26348C8.58336 1.29356 8.66442 1.33139 8.74339 1.37699L13.3598 4.04229C13.4758 4.10927 13.5796 4.18852 13.6711 4.28002C13.7626 4.37153 13.8419 4.4753 13.9089 4.59132C13.9758 4.70729 14.026 4.82774 14.0595 4.95267L14.0596 4.95287C14.0931 5.07787 14.1098 5.20735 14.1098 5.34132L14.1098 10.6719C14.1098 10.7355 14.106 10.7981 14.0985 10.8597L12.2202 9.84398C12.2419 9.73747 12.2527 9.62807 12.2527 9.51575L12.2527 6.48423C12.2527 6.33888 12.2346 6.1984 12.1982 6.06279C12.1619 5.92717 12.1074 5.79641 12.0347 5.67053C11.962 5.54465 11.8761 5.43207 11.7768 5.33279C11.6775 5.23351 11.5649 5.14753 11.439 5.07486L8.81367 3.55909C8.7123 3.50057 8.60776 3.45382 8.50008 3.41886ZM7.50008 3.41879L7.50023 1.2586C7.41231 1.28943 7.32669 1.32889 7.24339 1.37699L2.62695 4.04229C2.51093 4.10927 2.40716 4.18852 2.31565 4.28003C2.22415 4.37153 2.1449 4.4753 2.07792 4.59132C2.01093 4.70735 1.96069 4.82786 1.92719 4.95286C1.8937 5.07786 1.87695 5.20735 1.87695 5.34132L1.87695 10.6719C1.87695 10.7172 1.87887 10.762 1.8827 10.8063L3.77784 9.83452C3.75741 9.731 3.74719 9.62474 3.74719 9.51575L3.74719 6.48423C3.74719 6.33887 3.76536 6.19839 3.8017 6.06277C3.83804 5.92715 3.89255 5.79641 3.96522 5.67053C4.0379 5.54465 4.12388 5.43207 4.22315 5.33279C4.32243 5.23351 4.43501 5.14753 4.56089 5.07486L7.18627 3.55909C7.28771 3.50053 7.39231 3.45376 7.50008 3.41879ZM4.2657 10.7082L2.29922 11.7165C2.30465 11.7221 2.31013 11.7277 2.31565 11.7332C2.40716 11.8247 2.51093 11.904 2.62695 11.971L7.24339 14.6363C7.35942 14.7032 7.47993 14.7535 7.60493 14.787L7.60496 14.787C7.72995 14.8205 7.85943 14.8372 7.99339 14.8372C8.12736 14.8372 8.25685 14.8205 8.38185 14.787C8.50685 14.7535 8.62736 14.7032 8.74339 14.6363L13.3598 11.971C13.467 11.9091 13.5637 11.8368 13.6499 11.754L11.7275 10.7144C11.6407 10.794 11.5445 10.8642 11.439 10.9251L8.81367 12.4409C8.68779 12.5136 8.55704 12.5681 8.42143 12.6044C8.28581 12.6407 8.14532 12.6589 7.99997 12.6589C7.85461 12.6589 7.71413 12.6407 7.57851 12.6044C7.44289 12.5681 7.31215 12.5136 7.18627 12.4409L4.56089 10.9251C4.45266 10.8626 4.35426 10.7903 4.2657 10.7082ZM10.8868 5.9107L8.31367 4.42512C8.26514 4.3971 8.21474 4.37609 8.16245 4.36208C8.11017 4.34807 8.05601 4.34106 7.99997 4.34106C7.94393 4.34106 7.88977 4.34807 7.83749 4.36208C7.78521 4.37609 7.7348 4.3971 7.68627 4.42512L5.11317 5.9107L7.99998 7.5774L10.8868 5.9107ZM11.2527 6.85411L8.49998 8.44342L8.49998 11.4673L10.939 10.0591C10.9876 10.0311 11.031 9.99792 11.0693 9.95965C11.1075 9.92137 11.1407 9.87798 11.1687 9.82945C11.1967 9.78092 11.2177 9.73052 11.2317 9.67824C11.2457 9.62595 11.2527 9.57179 11.2527 9.51575L11.2527 6.85411ZM7.49998 11.4673L7.49998 8.44342L4.74719 6.8541L4.74719 9.51575C4.74719 9.57178 4.7542 9.62594 4.76821 9.67823C4.78221 9.73051 4.80323 9.78092 4.83125 9.82945C4.85927 9.87798 4.89241 9.92138 4.93068 9.95965C4.96896 9.99793 5.01236 10.0311 5.06089 10.0591L7.49998 11.4673Z" fill="currentColor" fill-rule="evenodd" />
</svg>
