
<svg viewBox="0 0 16 16" xmlns="http://www.w3.org/2000/svg" xmlns:xlink="http://www.w3.org/1999/xlink" width="16.000000" height="16.000000" fill="none">
	<rect id="插件" width="16.000000" height="16.000000" x="0.000000" y="0.000000" fill="rgb(151.406,144.524,144.524)" fill-opacity="0" />
	<path id="合并" d="M7.52882 3.90234L4.50713 3.9051C4.438 3.9051 4.37395 3.91734 4.31498 3.94182C4.25629 3.96619 4.20264 4.00268 4.15402 4.0513C4.1054 4.09993 4.0689 4.15358 4.04454 4.21227C4.02005 4.27124 4.00781 4.33528 4.00781 4.40442L4.00781 7.36219C4.00781 7.36923 4.00767 7.37623 4.0074 7.38318C4.01703 7.42247 4.02214 7.46371 4.02214 7.50635C4.02214 7.78635 3.80214 8.00635 3.52214 8.00635L2.74297 8.00635C2.66104 8.00635 2.58126 8.01547 2.50362 8.03372L2.50344 8.03376L2.50314 8.03383C2.44684 8.04709 2.39166 8.06515 2.33761 8.08801C2.281 8.11196 2.22731 8.1404 2.17654 8.17335L2.17653 8.17335C2.11558 8.21291 2.05884 8.25895 2.00631 8.31148C1.95378 8.36401 1.90774 8.42075 1.86819 8.4817L1.86818 8.48171L1.86817 8.48172L1.86816 8.48174C1.83522 8.5325 1.80678 8.58618 1.78284 8.64279C1.75994 8.69692 1.74186 8.75219 1.72859 8.80859C1.71031 8.88629 1.70117 8.96615 1.70117 9.04815C1.70117 9.12708 1.70964 9.20411 1.72656 9.27923L1.72657 9.27928C1.73988 9.33834 1.75843 9.39622 1.7822 9.45292C1.80725 9.51265 1.83723 9.56915 1.87216 9.6224C1.91021 9.68042 1.95413 9.7346 2.00391 9.78494C2.05987 9.84151 2.1206 9.89056 2.18611 9.93207C2.23215 9.96124 2.28055 9.9867 2.3313 10.0084C2.37196 10.0258 2.4134 10.0405 2.45562 10.0523C2.54512 10.0774 2.63814 10.0899 2.73467 10.0899L3.46309 10.0957C3.71677 10.0977 3.91975 10.28 3.95401 10.5224C3.98849 10.5907 4.00781 10.6684 4.00781 10.7514L4.00781 13.6966C4.00781 13.7656 4.02002 13.8296 4.04442 13.8885C4.06883 13.9475 4.10544 14.0013 4.15426 14.0502C4.20308 14.099 4.25695 14.1356 4.31587 14.16C4.3748 14.1844 4.43878 14.1966 4.50781 14.1966L7.10547 14.1966L7.10547 14.0852C7.10547 13.9352 7.12116 13.7886 7.15256 13.6454C7.17924 13.5237 7.21726 13.4045 7.26662 13.2878C7.31603 13.171 7.37512 13.0606 7.44387 12.9566L7.44389 12.9565C7.51938 12.8423 7.60653 12.7358 7.70534 12.637C7.80415 12.5382 7.91067 12.451 8.02489 12.3755C8.12894 12.3068 8.23937 12.2477 8.3562 12.1983C8.4729 12.1489 8.59209 12.1109 8.71377 12.0842L8.7138 12.0842C8.85694 12.0528 9.00353 12.0371 9.15356 12.0371C9.3036 12.0371 9.4502 12.0528 9.59336 12.0842C9.71503 12.1109 9.83423 12.1489 9.95093 12.1983C10.0678 12.2477 10.1782 12.3068 10.2822 12.3755C10.3965 12.451 10.503 12.5382 10.6018 12.637C10.7006 12.7358 10.7877 12.8423 10.8632 12.9565C10.932 13.0606 10.9911 13.171 11.0405 13.2878C11.0899 13.4045 11.1279 13.5237 11.1546 13.6454L11.1546 13.6454C11.186 13.7886 11.2017 13.9352 11.2017 14.0852L11.2017 14.1966L13.7993 14.1966C13.8683 14.1966 13.9323 14.1844 13.9913 14.16C14.0502 14.1356 14.1041 14.099 14.1529 14.0502C14.2017 14.0013 14.2383 13.9475 14.2627 13.8885C14.2871 13.8296 14.2993 13.7656 14.2993 13.6966L14.2993 4.41581C14.2993 4.347 14.2871 4.28329 14.2626 4.22468C14.238 4.16573 14.2011 4.11195 14.1517 4.06332C14.1002 4.01253 14.0434 3.97485 13.9815 3.9503C13.9235 3.92734 13.861 3.91585 13.794 3.91584L10.7943 3.9478C10.6892 3.94892 10.5922 3.91894 10.5119 3.86624C10.3284 3.79281 10.2017 3.61486 10.2017 3.40234L10.2017 2.79028C10.2017 2.70781 10.1925 2.6275 10.1741 2.54935C10.1607 2.49259 10.1425 2.43696 10.1195 2.38247C10.0954 2.32552 10.0668 2.2715 10.0336 2.22042L10.0336 2.2204C9.99384 2.15909 9.94752 2.10201 9.89468 2.04917C9.84184 1.99633 9.78476 1.95001 9.72345 1.91022C9.67237 1.87707 9.61834 1.84844 9.56138 1.82435C9.50689 1.8013 9.45126 1.7831 9.39449 1.76975L9.39403 1.76964C9.31602 1.75134 9.23587 1.74219 9.15356 1.74219C9.07111 1.74219 8.99081 1.75137 8.91267 1.76975L8.91265 1.76975L8.9126 1.76976C8.85584 1.78311 8.80023 1.80131 8.74575 1.82435C8.6888 1.84843 8.6348 1.87705 8.58373 1.91019L8.5837 1.91021C8.52238 1.95 8.4653 1.99632 8.41245 2.04917C8.35967 2.10195 8.31339 2.15896 8.27363 2.2202L8.2735 2.2204C8.24035 2.27148 8.21172 2.32551 8.18763 2.38247C8.16463 2.43683 8.14647 2.49233 8.13313 2.54897L8.13303 2.54936L8.133 2.54951C8.11465 2.62761 8.10547 2.70787 8.10547 2.79028L8.10547 3.36275C8.10547 3.57407 7.98015 3.75122 7.7983 3.82541C7.721 3.87419 7.6288 3.90225 7.52894 3.90234L7.52882 3.90234ZM7.10547 2.90273L4.50713 2.9051C4.39808 2.9051 4.29151 2.91643 4.1874 2.9391C4.09755 2.95866 4.00954 2.98666 3.92336 3.0231C3.83724 3.05952 3.75587 3.10311 3.67925 3.15388C3.59622 3.20889 3.51877 3.27233 3.44691 3.3442C3.37505 3.41606 3.3116 3.49351 3.25659 3.57654C3.20582 3.65316 3.16223 3.73453 3.12581 3.82065C3.08937 3.90683 3.06137 3.99484 3.04181 4.08469C3.01914 4.1888 3.00781 4.29537 3.00781 4.40442L3.00781 7.00635L2.74297 7.00635C2.59347 7.00635 2.44739 7.02198 2.30474 7.05325L2.30458 7.05328C2.18326 7.07988 2.06442 7.11779 1.94806 7.16701C1.83158 7.21627 1.72148 7.27519 1.61775 7.34374L1.61774 7.34375L1.61762 7.34383C1.5038 7.41907 1.39766 7.50592 1.2992 7.60438C1.2007 7.70288 1.11382 7.80906 1.03856 7.92293C0.970007 8.02666 0.911097 8.13676 0.861832 8.25323C0.812618 8.36959 0.774711 8.48842 0.74811 8.60973L0.748107 8.60975C0.716817 8.75245 0.701172 8.89858 0.701172 9.04815C0.701172 9.19409 0.71607 9.33686 0.745865 9.47645L0.745872 9.47648L0.745877 9.4765C0.772247 9.60002 0.810282 9.72105 0.859983 9.83959C0.910008 9.9589 0.970082 10.0716 1.04021 10.1776L1.04021 10.1776C1.11348 10.2884 1.19772 10.3919 1.29293 10.4881C1.39472 10.5911 1.50479 10.6814 1.62313 10.7591C1.72219 10.8241 1.82704 10.8803 1.9377 10.9277C2.07102 10.9848 2.20726 11.0268 2.34642 11.0538L2.34644 11.0538C2.47086 11.0778 2.59761 11.0899 2.7267 11.0899L3.00781 11.0921L3.00781 13.6966C3.00781 13.8055 3.01911 13.9119 3.0417 14.0159C3.06128 14.106 3.08935 14.1942 3.1259 14.2806C3.1623 14.3667 3.20586 14.448 3.25659 14.5246C3.31167 14.6077 3.37519 14.6853 3.44715 14.7573C3.51913 14.8292 3.59669 14.8928 3.67986 14.9479C3.75643 14.9986 3.83774 15.0421 3.92379 15.0785C4.01019 15.1151 4.09842 15.1431 4.18851 15.1627C4.29249 15.1853 4.39892 15.1966 4.50781 15.1966L7.53055 15.1966C7.63095 15.1966 7.72364 15.1683 7.80124 15.1191C7.9815 15.0442 8.10547 14.8679 8.10547 14.6577L8.10547 14.0852C8.10547 14.0027 8.11466 13.9224 8.13303 13.8443C8.14638 13.7875 8.16458 13.7319 8.18763 13.6774C8.21172 13.6204 8.24034 13.5664 8.2735 13.5153L8.27351 13.5153C8.3133 13.454 8.35961 13.3969 8.41245 13.3441C8.4653 13.2912 8.52238 13.2449 8.5837 13.2051C8.63478 13.172 8.6888 13.1434 8.74575 13.1193C8.80024 13.0962 8.85588 13.078 8.91265 13.0647C8.9908 13.0463 9.0711 13.0371 9.15356 13.0371C9.23603 13.0371 9.31634 13.0463 9.39449 13.0647L9.3945 13.0647C9.45127 13.078 9.50689 13.0962 9.56138 13.1193C9.61834 13.1434 9.67237 13.172 9.72346 13.2051C9.78477 13.2449 9.84184 13.2912 9.89468 13.3441C9.94751 13.3969 9.99382 13.454 10.0336 13.5153L10.0336 13.5153C10.0668 13.5664 10.0954 13.6204 10.1195 13.6774C10.1425 13.7319 10.1607 13.7875 10.1741 13.8442L10.1741 13.8443C10.1925 13.9224 10.2017 14.0027 10.2017 14.0852L10.2017 14.6973C10.2017 14.9773 10.4217 15.1973 10.7017 15.1973C10.7167 15.1973 10.7315 15.1966 10.7462 15.1954C10.758 15.1962 10.77 15.1966 10.7821 15.1966L13.7993 15.1966C13.9082 15.1966 14.0146 15.1853 14.1186 15.1627C14.2087 15.1431 14.2969 15.1151 14.3833 15.0785C14.4694 15.0421 14.5507 14.9986 14.6273 14.9478C14.7104 14.8928 14.788 14.8292 14.86 14.7573C14.9319 14.6853 14.9955 14.6077 15.0505 14.5246C15.1013 14.448 15.1448 14.3667 15.1812 14.2806C15.2178 14.1942 15.2458 14.106 15.2654 14.0159C15.288 13.9119 15.2993 13.8055 15.2993 13.6966L15.2993 4.41581C15.2993 4.30372 15.2873 4.19432 15.2634 4.0876C15.2436 3.99926 15.2156 3.91276 15.1793 3.82811C15.1435 3.74439 15.1008 3.66521 15.0514 3.59055C14.9945 3.50472 14.9285 3.42488 14.8536 3.35102C14.7846 3.28302 14.7105 3.22263 14.6313 3.16986C14.5506 3.11606 14.4646 3.07018 14.3734 3.03222C14.3097 3.00574 14.2449 2.98379 14.1789 2.96635C14.0515 2.9327 13.9196 2.91588 13.7833 2.9159L11.2017 2.9434L11.2017 2.79028C11.2017 2.64035 11.186 2.49386 11.1546 2.35079L11.1546 2.3505C11.1279 2.22882 11.0899 2.10963 11.0405 1.99292C10.9911 1.87609 10.932 1.76565 10.8632 1.66161C10.7877 1.54739 10.7006 1.44087 10.6018 1.34206C10.503 1.24325 10.3965 1.15611 10.2823 1.08062L10.2822 1.08061L10.2822 1.08058C10.1782 1.01183 10.0677 0.952749 9.95093 0.903342C9.83424 0.853985 9.71506 0.815966 9.59339 0.789284L9.59336 0.789276C9.4502 0.757884 9.3036 0.742188 9.15356 0.742188C9.00352 0.742188 8.85693 0.757884 8.71377 0.789276L8.71376 0.789278C8.59209 0.815961 8.4729 0.853982 8.3562 0.903342C8.23937 0.952757 8.12893 1.01185 8.02489 1.08061L8.02483 1.08065C7.91063 1.15613 7.80413 1.24327 7.70534 1.34206C7.60653 1.44087 7.51938 1.54739 7.44389 1.66161L7.44388 1.66163C7.37512 1.76566 7.31604 1.87609 7.26662 1.99292C7.21726 2.10962 7.17924 2.22881 7.15256 2.35049L7.15252 2.35068C7.12115 2.49377 7.10547 2.64031 7.10547 2.79028L7.10547 2.90273Z"  fill="currentColor" fill-rule="evenodd" />
</svg>
