
<svg viewBox="0 0 16 16" xmlns="http://www.w3.org/2000/svg" xmlns:xlink="http://www.w3.org/1999/xlink" width="16.000000" height="16.000000" fill="none">
	<rect id="工作流" width="16.000000" height="16.000000" x="0.000000" y="0.000000" />
	<g id="ic_ict_professional_work-链路管理/model/border/ic_ict_professional_work1" opacity="0">
		<path id="path1" d="M0.501823 7.99389C0.501823 6.8222 0.497722 5.6505 0.501823 4.47881C0.499465 3.91183 0.569153 3.34684 0.709212 2.79743C1.0162 1.63452 1.7737 0.944393 2.93543 0.676661C3.51794 0.550805 4.11291 0.491839 4.70879 0.500907C6.95571 0.500907 9.20282 0.500907 11.4501 0.500907C12.0177 0.497384 12.5836 0.562295 13.1356 0.694236C14.3325 0.98716 15.0507 1.74525 15.3243 2.93803C15.4473 3.50176 15.5061 4.07761 15.4995 4.65456C15.4995 6.92569 15.4995 9.19702 15.4995 11.4685C15.5026 12.0306 15.4379 12.591 15.3068 13.1376C15.0138 14.3351 14.2522 15.0498 13.0594 15.3234C12.4769 15.4488 11.882 15.5078 11.2861 15.4992C9.04855 15.4992 6.8112 15.4992 4.57404 15.4992C4.00215 15.5038 3.43176 15.4399 2.87509 15.3088C1.67293 15.0159 0.951167 14.2542 0.678162 13.0556C0.538731 12.4463 0.501823 11.8353 0.501823 11.219C0.501823 10.1441 0.501823 9.06911 0.501823 7.99389Z" fill="rgb(255,255,255)" fill-opacity="0" fill-rule="nonzero" />
		<path id="path1" d="M0.501823 4.47881C0.499465 3.91183 0.569153 3.34684 0.709212 2.79743C1.0162 1.63452 1.7737 0.944393 2.93543 0.676661C3.51794 0.550805 4.11291 0.491839 4.70879 0.500907C6.95571 0.500907 9.20282 0.500907 11.4501 0.500907C12.0177 0.497384 12.5836 0.562295 13.1356 0.694236C14.3325 0.98716 15.0507 1.74525 15.3243 2.93803C15.4473 3.50176 15.5061 4.07761 15.4995 4.65456C15.4995 6.92569 15.4995 9.19702 15.4995 11.4685C15.5026 12.0306 15.4379 12.591 15.3068 13.1376C15.0138 14.3351 14.2522 15.0498 13.0594 15.3234C12.4769 15.4488 11.882 15.5078 11.2861 15.4992C9.04855 15.4992 6.8112 15.4992 4.57404 15.4992C4.00215 15.5038 3.43176 15.4399 2.87509 15.3088C1.67293 15.0159 0.951167 14.2542 0.678162 13.0556C0.538731 12.4463 0.501823 11.8353 0.501823 11.219C0.501823 10.1441 0.501823 9.06911 0.501823 7.99389C0.501823 6.8222 0.497722 5.6505 0.501823 4.47881Z" fill-rule="nonzero" stroke="rgb(255,255,255)" stroke-opacity="0" stroke-width="1.33333337" />
		<path id="path2" d="M0.501823 7.99389C0.501823 6.8222 0.497722 5.6505 0.501823 4.47881C0.499465 3.91183 0.569153 3.34684 0.709212 2.79743C1.0162 1.63452 1.7737 0.944393 2.93543 0.676661C3.51794 0.550805 4.11291 0.491839 4.70879 0.500907C6.95571 0.500907 9.20282 0.500907 11.4501 0.500907C12.0177 0.497384 12.5836 0.562295 13.1356 0.694236C14.3325 0.98716 15.0507 1.74525 15.3243 2.93803C15.4473 3.50176 15.5061 4.07761 15.4995 4.65456C15.4995 6.92569 15.4995 9.19702 15.4995 11.4685C15.5026 12.0306 15.4379 12.591 15.3068 13.1376C15.0138 14.3351 14.2522 15.0498 13.0594 15.3234C12.4769 15.4488 11.882 15.5078 11.2861 15.4992C9.04855 15.4992 6.8112 15.4992 4.57404 15.4992C4.00215 15.5038 3.43176 15.4399 2.87509 15.3088C1.67293 15.0159 0.951167 14.2542 0.678162 13.0556C0.538731 12.4463 0.501823 11.8353 0.501823 11.219C0.501823 10.1441 0.501823 9.06911 0.501823 7.99389Z" opacity="0.200000003" fill="rgb(0,0,0)" fill-opacity="0" fill-rule="nonzero" />
		<path id="path2" d="M0.501823 4.47881C0.499465 3.91183 0.569153 3.34684 0.709212 2.79743C1.0162 1.63452 1.7737 0.944393 2.93543 0.676661C3.51794 0.550805 4.11291 0.491839 4.70879 0.500907C6.95571 0.500907 9.20282 0.500907 11.4501 0.500907C12.0177 0.497384 12.5836 0.562295 13.1356 0.694236C14.3325 0.98716 15.0507 1.74525 15.3243 2.93803C15.4473 3.50176 15.5061 4.07761 15.4995 4.65456C15.4995 6.92569 15.4995 9.19702 15.4995 11.4685C15.5026 12.0306 15.4379 12.591 15.3068 13.1376C15.0138 14.3351 14.2522 15.0498 13.0594 15.3234C12.4769 15.4488 11.882 15.5078 11.2861 15.4992C9.04855 15.4992 6.8112 15.4992 4.57404 15.4992C4.00215 15.5038 3.43176 15.4399 2.87509 15.3088C1.67293 15.0159 0.951167 14.2542 0.678162 13.0556C0.538731 12.4463 0.501823 11.8353 0.501823 11.219C0.501823 10.1441 0.501823 9.06911 0.501823 7.99389C0.501823 6.8222 0.497722 5.6505 0.501823 4.47881Z" opacity="0.200000003" fill-rule="nonzero" stroke="rgb(255,255,255)" stroke-opacity="0" stroke-width="1.33333337" />
		<circle id="path3" cx="8" cy="8" r="8" fill="rgb(255,255,255)" fill-opacity="0" />
		<circle id="path3" cx="8" cy="8" r="8" stroke="rgb(0,0,0)" stroke-opacity="0" stroke-width="1.33333337" />
		<circle id="path4" cx="8.00016308" cy="4.33365917" r="3.66666675" fill="rgb(255,255,255)" fill-opacity="0" />
		<circle id="path4" cx="8.00016308" cy="4.33365917" r="3.66666675" stroke="currentColor" stroke-linecap="round" stroke-linejoin="round" stroke-width="1" />
		<circle id="path5" cx="8.00016308" cy="4.33365917" r="1.66666687" fill="rgb(0,0,0)" fill-opacity="0" />
		<circle id="path5" cx="8.00016308" cy="4.33365917" r="1.66666687" stroke="currentColor" stroke-linecap="round" stroke-linejoin="round" stroke-width="1" />
		<path id="path6" d="M1.73389 13.667C2.28617 13.667 2.73389 13.2193 2.73389 12.667C2.73389 12.1147 2.28617 11.667 1.73389 11.667C1.1816 11.667 0.733887 12.1147 0.733887 12.667C0.733887 13.2193 1.1816 13.667 1.73389 13.667ZM7.93571 15.266C8.488 15.266 8.93571 14.8182 8.93571 14.266C8.93571 13.7137 8.488 13.266 7.93571 13.266C7.38343 13.266 6.93571 13.7137 6.93571 14.266C6.93571 14.8182 7.38343 15.266 7.93571 15.266ZM14.2 13.667C14.7523 13.667 15.2 13.2193 15.2 12.667C15.2 12.1147 14.7523 11.667 14.2 11.667C13.6478 11.667 13.2 12.1147 13.2 12.667C13.2 13.2193 13.6478 13.667 14.2 13.667Z" fill="rgb(255,255,255)" fill-opacity="0" fill-rule="evenodd" />
		<path id="path6" d="M2.73389 12.667C2.73389 12.1147 2.28617 11.667 1.73389 11.667C1.1816 11.667 0.733887 12.1147 0.733887 12.667C0.733887 13.2193 1.1816 13.667 1.73389 13.667C2.28617 13.667 2.73389 13.2193 2.73389 12.667ZM8.93571 14.266C8.93571 13.7137 8.488 13.266 7.93571 13.266C7.38343 13.266 6.93571 13.7137 6.93571 14.266C6.93571 14.8182 7.38343 15.266 7.93571 15.266C8.488 15.266 8.93571 14.8182 8.93571 14.266ZM15.2 12.667C15.2 12.1147 14.7523 11.667 14.2 11.667C13.6478 11.667 13.2 12.1147 13.2 12.667C13.2 13.2193 13.6478 13.667 14.2 13.667C14.7523 13.667 15.2 13.2193 15.2 12.667Z" fill-rule="evenodd" stroke="currentColor" stroke-linecap="round" stroke-linejoin="round" stroke-width="1" />
		<path id="path7" d="M8.00081 8.33362L8.00081 12.9538M6.00081 7.47656L6.00081 10.3764L2.65186 11.9954M9.83415 7.47656L9.83415 10.3764L13.3341 12.1432" stroke="currentColor" stroke-linecap="round" stroke-linejoin="round" stroke-width="1" />
		<path id="path8" d="M8.0002 8.16663C8.09225 8.16663 8.16687 8.24125 8.16687 8.3333L8.16687 13.3333C8.16687 13.4253 8.09225 13.5 8.0002 13.5C7.90815 13.5 7.83353 13.4253 7.83353 13.3333L7.83353 8.3333C7.83353 8.24125 7.90815 8.16663 8.0002 8.16663ZM6.0002 7.30957C6.09225 7.30957 6.16687 7.38419 6.16687 7.47624L6.16687 10.3761C6.16687 10.439 6.13146 10.4965 6.07531 10.5249L2.57531 12.2917C2.49313 12.3332 2.39289 12.3002 2.35141 12.218C2.30993 12.1358 2.34292 12.0356 2.42509 11.9941L5.83353 10.2732L5.83353 7.47624C5.83353 7.39442 5.92245 7.32368 6.0002 7.30957ZM9.83353 7.30957C9.92558 7.30957 10.0002 7.38419 10.0002 7.47624L10.0002 10.2736L13.4086 11.9941C13.4817 12.031 13.5159 12.1143 13.4934 12.1901C13.4519 12.2722 13.3406 12.3332 13.2584 12.2917L9.75843 10.5249C9.70228 10.4965 9.66687 10.439 9.66687 10.3761L9.66687 7.47624C9.66687 7.38419 9.74149 7.30957 9.83353 7.30957Z" fill="rgb(25,25,25)" fill-opacity="0" fill-rule="nonzero" />
		<path id="path8" d="M8.16687 8.3333L8.16687 13.3333C8.16687 13.4253 8.09225 13.5 8.0002 13.5C7.90815 13.5 7.83353 13.4253 7.83353 13.3333L7.83353 8.3333C7.83353 8.24125 7.90815 8.16663 8.0002 8.16663C8.09225 8.16663 8.16687 8.24125 8.16687 8.3333ZM6.16687 7.47624L6.16687 10.3761C6.16687 10.439 6.13146 10.4965 6.07531 10.5249L2.57531 12.2917C2.49313 12.3332 2.39289 12.3002 2.35141 12.218C2.30993 12.1358 2.34292 12.0356 2.42509 11.9941L5.83353 10.2732L5.83353 7.47624C5.83353 7.39442 5.92245 7.32368 6.0002 7.30957C6.09225 7.30957 6.16687 7.38419 6.16687 7.47624ZM10.0002 7.47624L10.0002 10.2736L13.4086 11.9941C13.4817 12.031 13.5159 12.1143 13.4934 12.1901C13.4519 12.2722 13.3406 12.3332 13.2584 12.2917L9.75843 10.5249C9.70228 10.4965 9.66687 10.439 9.66687 10.3761L9.66687 7.47624C9.66687 7.38419 9.74149 7.30957 9.83353 7.30957C9.92558 7.30957 10.0002 7.38419 10.0002 7.47624Z" fill-rule="nonzero" stroke="rgb(25,25,25)" stroke-opacity="0" stroke-linecap="round" stroke-linejoin="round" stroke-width="1.33333337" />
	</g>
	<g id="组合 4833">
		<circle id="椭圆 1" cx="12.1999025" cy="3.80000019" r="2.2166667" stroke="currentColor" stroke-width="1.16666687" />
		<circle id="椭圆 1" cx="3.80000019" cy="12.2003908" r="2.2166667" stroke="currentColor" stroke-width="1.16666687" />
		<path id="矢量 2" d="M14.3002 8.7002L14.3002 11.5002C14.3002 13.0466 13.0466 14.3002 11.5002 14.3002L8.7002 14.3002" stroke="currentColor" stroke-width="1.16666687" />
		<path id="矢量 3" d="M5.6 0L5.6 2.8C5.6 4.3464 4.3464 5.6 2.8 5.6L0 5.6" stroke="currentColor" stroke-width="1.16666687" transform="matrix(-1,0,0,-1,7.2998,7.2998)" />
	</g>
</svg>
